Coordinates
version=1
nRows=14
nColumns=24
inDegrees=yes

Units are S.I. units (second, meters, Newtons, ...)
Angles are in degrees.

endheader
time	pelvis_tilt	pelvis_list	pelvis_rotation	pelvis_tx	pelvis_ty	pelvis_tz	hip_flexion_r	hip_adduction_r	hip_rotation_r	knee_angle_r	ankle_angle_r	subtalar_angle_r	mtp_angle_r	hip_flexion_l	hip_adduction_l	hip_rotation_l	knee_angle_l	ankle_angle_l	subtalar_angle_l	mtp_angle_l	lumbar_extension	lumbar_bending	lumbar_rotation
      2.89500000	     -8.66950290	      7.78643661	    357.25016063	      0.51357066	      1.36917547	     -1.01421664	      7.54591332	     -6.11733065	      3.23346220	    -39.11606572	      0.32038346	      6.25610233	     26.52567768	     25.11438511	     11.28285507	      3.34895497	     -8.81606078	    -12.90949618	    -12.72576064	     30.77523800	     -6.94157001	     -3.61569947	     16.96263851
      2.90000000	     -8.53306092	      8.00397216	    357.18378403	      0.51866257	      1.36944193	     -1.01446986	      8.22121057	     -6.45015965	      3.43459774	    -40.76902452	     -0.75547971	      6.84979718	     27.27765228	     24.96893022	     11.55020343	      3.32549410	     -9.36926939	    -12.50837413	    -12.74904857	     30.13857564	     -7.07886989	     -3.89459394	     16.97740668
      2.90500000	     -8.36945214	      8.21259678	    357.12093969	      0.52372320	      1.36973665	     -1.01471914	      8.87533035	     -6.76543512	      3.65584721	    -42.38766979	     -1.77462871	      7.44897317	     27.84827486	     24.77125300	     11.81007307	      3.25101499	     -9.87557391	    -12.07589470	    -12.68661500	     29.54164041	     -7.24669061	     -4.16402075	     16.98187767
      2.91000000	     -8.21496986	      8.38610206	    357.06858979	      0.52873485	      1.37002478	     -1.01498504	      9.54458380	     -7.03091019	      3.89080034	    -43.96573753	     -2.73849685	      8.02732911	     28.26196539	     24.56829077	     12.03660443	      3.13243973	    -10.35578439	    -11.60787141	    -12.52452196	     28.91538745	     -7.40567440	     -4.38877066	     16.98326294
      2.91500000	     -8.07901029	      8.56952218	    357.02205474	      0.53374394	      1.37027312	     -1.01524430	     10.24040280	     -7.29728738	      4.13936475	    -45.51445896	     -3.53684183	      8.63846217	     28.44423236	     24.35581012	     12.27008664	      2.97797019	    -10.77079249	    -11.14905469	    -12.35124022	     28.44043635	     -7.53411129	     -4.62641830	     16.97057895
      2.92000000	     -7.90996114	      8.75438428	    356.97976344	      0.53874816	      1.37054545	     -1.01549565	     10.89411052	     -7.55831669	      4.39175067	    -47.00826273	     -4.16432327	      9.24110667	     28.48828755	     24.07170545	     12.50807469	      2.79821570	    -11.11416526	    -10.69409494	    -12.16579188	     28.07370888	     -7.69525743	     -4.86847280	     16.94232912
      2.92500000	     -7.77164645	      8.89736825	    356.95117030	      0.54369532	      1.37079956	     -1.01578660	     11.57743732	     -7.76092635	      4.64760844	    -48.44709915	     -4.67088101	      9.80527843	     28.38536636	     23.80436705	     12.70556138	      2.59649947	    -11.43030755	    -10.21838118	    -11.88520271	     27.65200200	     -7.82475088	     -5.05518715	     16.91770460
      2.93000000	     -7.65582605	      8.99593640	    356.93250049	      0.54862610	      1.37107663	     -1.01607085	     12.27070072	     -7.89686701	      4.90625148	    -49.81431563	     -5.05116615	     10.30794496	     28.12024389	     23.53452132	     12.85684750	      2.38335592	    -11.70715837	     -9.73712763	    -11.57234863	     27.20517171	     -7.93212426	     -5.18440271	     16.86707122
      2.93500000	     -7.52140481	      9.09458119	    356.93692494	      0.55355426	      1.37135847	     -1.01640272	     12.92796636	     -8.03870386	      5.13083944	    -51.11422540	     -5.23164464	     10.78666680	     27.90868753	     23.20870052	     13.02175484	      2.20344431	    -11.91269136	     -9.30618619	    -11.31476361	     26.95392054	     -8.05353405	     -5.31670502	     16.81028823
      2.94000000	     -7.41070670	      9.14479519	    356.93766854	      0.55843612	      1.37166411	     -1.01672855	     13.60285208	     -8.10616662	      5.36640761	    -52.34582328	     -5.29012636	     11.14170265	     27.55334452	     22.89297533	     13.13155823	      2.00415349	    -12.09831419	     -8.85869940	    -11.01679913	     26.62041230	     -8.15833833	     -5.37937437	     16.73698134
      2.94500000	     -7.31827743	      9.18052301	    356.96955851	      0.56333136	      1.37197922	     -1.01709655	     14.27800506	     -8.15988957	      5.56052466	    -53.50241818	     -5.23005581	     11.41559282	     27.21114909	     22.56587463	     13.23924845	      1.85630341	    -12.23333200	     -8.46350794	    -10.75607458	     26.32794163	     -8.23637642	     -5.42629115	     16.63441619
      2.95000000	     -7.23286713	      9.17831176	    357.01525759	      0.56820817	      1.37231929	     -1.01750609	     14.94231590	     -8.17066401	      5.72976262	    -54.57663955	     -5.04757722	     11.60729573	     26.94032644	     22.22835471	     13.31529549	      1.74456444	    -12.34370051	     -8.07982161	    -10.52100602	     26.10327298	     -8.30804182	     -5.42281129	     16.53835580
      2.95500000	     -7.18089667	      9.14723479	    357.08592123	      0.57308427	      1.37266147	     -1.01795889	     15.62555965	     -8.15034282	      5.86393271	    -55.57347156	     -4.76071540	     11.70818723	     26.73823277	     21.91115206	     13.36981045	      1.67949417	    -12.43529274	     -7.72255123	    -10.31470832	     25.91374862	     -8.34293801	     -5.37880734	     16.42377786
      2.96000000	     -7.05084548	      9.09667826	    357.15016308	      0.57799536	      1.37313913	     -1.01843370	     16.19696265	     -8.11775348	      5.96547443	    -56.45992132	     -4.44718045	     11.62302241	     26.74246130	     21.47112418	     13.41633354	      1.66767729	    -12.45927180	     -7.46479078	    -10.31367595	     25.88146660	     -8.45234036	     -5.30616162	     16.31347228
